<?xml version="1.0" encoding="UTF-8"?>
<svg id="name" xmlns="http://www.w3.org/2000/svg" viewBox="0 0 139 139">
  <defs>
    <style>
      .cls-1 {
        fill: #a1dbff;
      }

      .cls-1, .cls-2 {
        stroke-width: 0px;
      }

      .cls-2 {
        fill: #517989;
      }
    </style>
  </defs>
  <circle class="cls-1" cx="69.5" cy="69.5" r="69.5"/>
  <g>
    <path class="cls-2" d="M39.54,66.23c-2.07,0-2.99-.91-2.99-2.99v-16.84c0-2.16.91-2.99,2.99-2.99h16.76c2.07,0,2.99.83,2.99,2.99v16.84c0,2.07-.91,2.99-2.99,2.99h-16.76ZM39.54,95.68c-2.07,0-2.99-.91-2.99-2.99v-16.84c0-2.16.91-2.99,2.99-2.99h16.76c2.07,0,2.99.83,2.99,2.99v16.84c0,2.07-.91,2.99-2.99,2.99h-16.76Z"/>
    <path class="cls-2" d="M77.56,106c-2.07,0-2.99-.91-2.99-2.99v-9.87c0-2.07.91-2.99,2.99-2.99h2.57c2.65,0,3.4-1.24,3.4-4.15v-32.85c0-2.9-.75-4.15-3.4-4.15h-2.57c-2.07,0-2.99-.91-2.99-2.99v-10.04c0-2.07.91-2.99,2.99-2.99h4.48c15.68,0,20.41,6.89,20.41,17.01v39.07c0,10.04-4.73,16.92-20.41,16.92h-4.48Z"/>
  </g>
</svg>